<?xml version="1.0" encoding="UTF-8"?>
<!-- Created with Inkscape (http://www.inkscape.org/) -->
<svg width="58mm" height="58mm" version="1.1" viewBox="0 0 58 58" xmlns="http://www.w3.org/2000/svg" xmlns:cc="http://creativecommons.org/ns#" xmlns:dc="http://purl.org/dc/elements/1.1/" xmlns:rdf="http://www.w3.org/1999/02/22-rdf-syntax-ns#">
 <metadata>
  <rdf:RDF>
   <cc:Work rdf:about="">
    <dc:format>image/svg+xml</dc:format>
    <dc:type rdf:resource="http://purl.org/dc/dcmitype/StillImage"/>
    <dc:title/>
   </cc:Work>
  </rdf:RDF>
 </metadata>
 <g transform="translate(0,-239)">
  <rect x="5e-7" y="239.06" width="57.939" height="57.939" fill="#fff" stroke-width="0"/>
  <path transform="translate(-90.561 126.17)" d="m116.88 132.65v7.2812h1.5039v-7.2812zm11.52 0.30664c-0.21704 0-0.40356 0.0774-0.55859 0.23242-0.15503 0.15503-0.23242 0.34202-0.23242 0.5625 0 0.21704 0.0774 0.40403 0.23242 0.5625 0.15847 0.15503 0.345 0.23243 0.55859 0.23243 0.22049 0 0.40747-0.0774 0.5625-0.23243 0.15503-0.15847 0.23243-0.34546 0.23243-0.5625 0-0.22048-0.0774-0.40747-0.23243-0.5625s-0.34201-0.23242-0.5625-0.23242zm-3.6445 0.95508v1.2656h-0.56836v1.2402h0.56836v3.5137h1.4941v-3.502h0.59375v-1.252h-0.58398v-1.2656zm-15.234 1.1016c-0.48921 0-0.89204 0.14708-1.209 0.44336-0.3135 0.29628-0.4707 0.67462-0.4707 1.1328 0 0.3204 0.0798 0.58765 0.23828 0.80469 0.15848 0.2136 0.4171 0.40012 0.77539 0.55859 0.44786 0.19638 0.70649 0.31655 0.77539 0.36133 0.0689 0.0448 0.10352 0.11643 0.10352 0.21289 0 0.0896-0.0423 0.16697-0.125 0.23243-0.0827 0.062-0.18457 0.0918-0.3086 0.0918-0.22737 0-0.598-0.14995-1.1113-0.45312l-0.51758 1.1094c0.62012 0.38241 1.2018 0.57422 1.7461 0.57422 0.50299 0 0.9164-0.15478 1.2402-0.46484s0.48632-0.70714 0.48632-1.1895c0-0.33761-0.10384-0.61545-0.31054-0.83593-0.20326-0.22049-0.52916-0.40989-0.98047-0.56836-0.24116-0.0861-0.40894-0.16352-0.50195-0.23242-0.0896-0.0724-0.13477-0.15745-0.13477-0.25391 0-0.19982 0.125-0.29883 0.37305-0.29883 0.28594 0 0.65174 0.1365 1.0996 0.41211l0.58007-1.0684c-0.68901-0.37896-1.2726-0.56836-1.748-0.56836zm4.332 0c-0.6649 0-1.1764 0.22735-1.5312 0.68555-0.3514 0.45475-0.52734 1.0893-0.52734 1.9023 0 0.77859 0.18606 1.3896 0.55468 1.834 0.37207 0.44441 0.87346 0.66797 1.5039 0.66797 0.65801 0 1.1728-0.21827 1.5449-0.65235 0.37207-0.43753 0.55664-1.0538 0.55664-1.8496 0-0.81304-0.17882-1.4476-0.53711-1.9023-0.35829-0.4582-0.87888-0.68555-1.5644-0.68555zm18.271 0c-0.6649 0-1.1744 0.22735-1.5293 0.68555-0.3514 0.45475-0.52735 1.0893-0.52735 1.9023 0 0.77859 0.18411 1.3896 0.55274 1.834 0.37207 0.44441 0.87345 0.66797 1.5039 0.66797 0.65802 0 1.1728-0.21827 1.5449-0.65235 0.37207-0.43753 0.55859-1.0538 0.55859-1.8496 0-0.81304-0.17882-1.4476-0.53711-1.9023-0.35829-0.4582-0.88083-0.68555-1.5664-0.68555zm-11.342 0.01c-0.44442 0-0.80401 0.22447-1.0762 0.67578-0.27216 0.45131-0.4082 1.059-0.4082 1.8203 0 0.79237 0.13558 1.4192 0.4043 1.8809s0.62877 0.69141 1.0801 0.69141c0.23082 0 0.42884-0.062 0.59765-0.18946 0.17226-0.12746 0.35062-0.32698 0.53321-0.5957h0.0215v0.625h1.4922v-4.7539h-1.5039v0.59571h-0.0195c-0.17914-0.26183-0.35221-0.45318-0.51758-0.57032-0.16536-0.12057-0.3658-0.17968-0.60351-0.17968zm17.141 0c-0.50643 0-0.93571 0.26679-1.2871 0.80078h-0.0254v-0.64649h-1.5v4.7539h1.5v-2.877c0-0.40308 0.16008-0.60547 0.48047-0.60547 0.12058 0 0.21913 0.0509 0.29492 0.1543 0.0758 0.10335 0.11328 0.23651 0.11328 0.39843v2.9297h1.5039v-3.6836c0-0.37552-0.0986-0.67405-0.29492-0.89453-0.19293-0.22049-0.45443-0.33008-0.78516-0.33008zm-10.273 0.15429v4.7539h1.5039v-4.7539zm-6.2949 1.168c0.38585 0 0.58008 0.39467 0.58008 1.1836 0 0.81993-0.18652 1.2305-0.55859 1.2305-0.40308 0-0.60547-0.41054-0.60547-1.2305 0-0.78893 0.19469-1.1836 0.58398-1.1836zm-7.4824 0.0215c0.19293 0 0.33713 0.088 0.43359 0.26367 0.0965 0.1757 0.14453 0.48239 0.14453 0.91992 0 0.44097-0.0485 0.75296-0.14843 0.93555-0.0965 0.18259-0.24309 0.27344-0.43946 0.27344-0.3824 0-0.57421-0.39996-0.57421-1.1992 0-0.45476 0.0505-0.76674 0.15039-0.93555 0.0999-0.17225 0.24411-0.25781 0.43359-0.25781zm18.273 0c0.19292 0 0.33713 0.088 0.43359 0.26367 0.0965 0.1757 0.14453 0.48239 0.14453 0.91992 0 0.44097-0.0505 0.75296-0.15039 0.93555-0.0965 0.18259-0.24308 0.27344-0.43945 0.27344-0.38241 0-0.57227-0.39996-0.57227-1.1992 0-0.45476 0.0505-0.76674 0.15039-0.93555 0.0999-0.17225 0.24412-0.25781 0.4336-0.25781z"/>
  <g transform="translate(-63.587 156.37)">
   <path d="m71.871 103.68 3.9686 9.6493 3.9686-9.6493z" stroke="#000" stroke-width=".42403px"/>
   <g stroke-width="0">
    <ellipse cx="75.821" cy="103.48" rx="4.293" ry=".94254"/>
    <ellipse cx="75.905" cy="103.31" rx="3.6917" ry=".86981" fill="#fff"/>
    <circle cx="75.833" cy="99.103" r="4.4768"/>
   </g>
  </g>
  <path transform="translate(-90.561 126.17)" d="m129.64 141.15v2.0527c-0.22967-0.31465-0.48254-0.47265-0.75585-0.47265-0.30088 0-0.54283 0.15352-0.72657 0.45898-0.18374 0.30547-0.27539 0.71439-0.27539 1.2266 0 0.51446 0.0904 0.92466 0.26953 1.2324 0.18145 0.30776 0.41891 0.46289 0.71289 0.46289 0.28021 0 0.53113-0.17434 0.75391-0.52344h0.0137v0.41602h1.002v-4.8535zm2.2832 0.20313c-0.1447 0-0.2697 0.0509-0.37305 0.15429-0.10335 0.10336-0.1543 0.22996-0.1543 0.37696 0 0.14469 0.051 0.26935 0.1543 0.375 0.10565 0.10335 0.23065 0.15429 0.37305 0.15429 0.14699 0 0.27165-0.0509 0.375-0.15429 0.10335-0.10565 0.15625-0.23031 0.15625-0.375 0-0.147-0.0529-0.2736-0.15625-0.37696-0.10335-0.10335-0.22801-0.15429-0.375-0.15429zm-9.0566 0.63671v0.84375h-0.37891v0.82813h0.37891v2.3418h0.99414v-2.3359h0.39648v-0.83399h-0.38867v-0.84375zm-1.8203 0.73438c-0.32614 0-0.59339 0.0994-0.80469 0.29687-0.209 0.19752-0.31446 0.44845-0.31446 0.75391 0 0.2136 0.0526 0.39242 0.15821 0.53711 0.10565 0.1424 0.27872 0.2674 0.51758 0.37305 0.29857 0.13091 0.46969 0.21037 0.51562 0.24023 0.0459 0.0299 0.0703 0.0763 0.0703 0.14063 0 0.0597-0.0289 0.11261-0.084 0.15625-0.0551 0.0413-0.1224 0.0625-0.20508 0.0625-0.15158 0-0.39997-0.10258-0.74219-0.30469l-0.34375 0.74219c0.41341 0.25493 0.80118 0.38086 1.1641 0.38086 0.33532 0 0.61027-0.10189 0.82617-0.3086 0.21589-0.2067 0.32422-0.47142 0.32422-0.79297 0-0.22508-0.0692-0.4116-0.20703-0.55859-0.13551-0.14699-0.35343-0.27326-0.6543-0.37891-0.16077-0.0574-0.27197-0.10836-0.33399-0.15429-0.0597-0.0482-0.0898-0.10562-0.0898-0.16993 0-0.13321 0.0827-0.19921 0.24805-0.19921 0.19063 0 0.4358 0.0916 0.73437 0.27539l0.38672-0.71289c-0.45935-0.25264-0.84907-0.37891-1.166-0.37891zm13.361 0c-0.44327 0-0.78296 0.15352-1.0195 0.45898-0.23426 0.30317-0.35156 0.72555-0.35156 1.2676 0 0.51906 0.12144 0.92638 0.36719 1.2227 0.24804 0.29628 0.5836 0.44336 1.0039 0.44336 0.43868 0 0.78125-0.14421 1.0293-0.4336 0.24805-0.29168 0.37305-0.70187 0.37305-1.2324 0-0.54203-0.12052-0.96441-0.35938-1.2676-0.23886-0.30546-0.58592-0.45898-1.043-0.45898zm2.9961 0c-0.32614 0-0.59339 0.0994-0.80469 0.29687-0.209 0.19752-0.31445 0.44845-0.31445 0.75391 0 0.2136 0.0525 0.39242 0.1582 0.53711 0.10565 0.1424 0.27872 0.2674 0.51758 0.37305 0.29857 0.13091 0.46969 0.21037 0.51562 0.24023 0.0459 0.0299 0.0703 0.0763 0.0703 0.14063 0 0.0597-0.0289 0.11261-0.084 0.15625-0.0551 0.0413-0.12435 0.0625-0.20703 0.0625-0.15158 0-0.39802-0.10258-0.74024-0.30469l-0.34374 0.74219c0.41341 0.25493 0.80117 0.38086 1.1641 0.38086 0.33532 0 0.61028-0.10189 0.82617-0.3086 0.21589-0.2067 0.32422-0.47142 0.32422-0.79297 0-0.22508-0.0692-0.4116-0.20703-0.55859-0.13551-0.14699-0.35343-0.27326-0.6543-0.37891-0.16077-0.0574-0.27197-0.10836-0.33398-0.15429-0.0597-0.0482-0.0899-0.10562-0.0899-0.16993 0-0.13321 0.0827-0.19921 0.24805-0.19921 0.19063 0 0.4358 0.0916 0.73437 0.27539l0.38672-0.71289c-0.45934-0.25264-0.84906-0.37891-1.166-0.37891zm-12.66 0.10937v1.9512c0 0.37896 0.10062 0.69462 0.30274 0.94726 0.2044 0.25264 0.53674 0.37891 0.99609 0.37891 0.41111 0 0.72517-0.12339 0.94336-0.36914 0.21819-0.24805 0.32812-0.60408 0.32812-1.0703v-1.8379h-1.002v1.9844c0 0.2825-0.0981 0.42383-0.29102 0.42383-0.085 0-0.15259-0.0346-0.20312-0.10352-0.0482-0.0712-0.0723-0.15802-0.0723-0.26367v-2.041zm6.6797 0v3.1699h1.0039v-3.1699zm-2.1621 0.7793c0.25264 0 0.3789 0.25989 0.3789 0.78125 0 0.26183-0.035 0.46503-0.10156 0.60742-0.0666 0.1424-0.15665 0.21289-0.27148 0.21289-0.12403 0-0.22177-0.066-0.29297-0.19922-0.0689-0.1355-0.10352-0.32651-0.10352-0.57226 0-0.55351 0.1311-0.83008 0.39063-0.83008zm5.1602 0.0137c0.12861 0 0.22475 0.0587 0.28906 0.17578 0.0643 0.11714 0.0957 0.3216 0.0957 0.61329 0 0.29398-0.033 0.50132-0.0996 0.62304-0.0643 0.12173-0.16205 0.1836-0.29297 0.1836-0.25493 0-0.38281-0.26599-0.38281-0.79883 0-0.30317 0.035-0.51246 0.10156-0.625 0.0666-0.11484 0.16274-0.17188 0.28907-0.17188z"/>
  <path d="m12.474 270.39 26.639 6.2076-16.723 7.7772z" stroke="#000" stroke-width=".20115px"/>
 </g>
</svg>
